<svg xmlns="http://www.w3.org/2000/svg" width="820" height="460" viewBox="0 0 820 460" font-family="DejaVu Sans, Arial, sans-serif">
<rect width="820" height="460" fill="white"/>
<text x="410.0" y="24" text-anchor="middle" font-size="16" font-weight="bold">Cat 5: PQC vs cổ điển (median ns, thang LOG) — x86</text>
<line x1="70" y1="60" x2="70" y2="310" stroke="#333"/>
<line x1="70" y1="310" x2="790" y2="310" stroke="#333"/>
<text x="16" y="185.0" font-size="11" transform="rotate(-90 16 185.0)" text-anchor="middle">ns (median)</text>
<line x1="70" y1="310.0" x2="790" y2="310.0" stroke="#eee"/>
<text x="65" y="313.0" font-size="9" text-anchor="end">1e0</text>
<line x1="70" y1="310.0" x2="790" y2="310.0" stroke="#eee"/>
<text x="65" y="313.0" font-size="9" text-anchor="end">1e1</text>
<line x1="70" y1="310.0" x2="790" y2="310.0" stroke="#eee"/>
<text x="65" y="313.0" font-size="9" text-anchor="end">1e2</text>
<line x1="70" y1="310.0" x2="790" y2="310.0" stroke="#eee"/>
<text x="65" y="313.0" font-size="9" text-anchor="end">1e3</text>
<line x1="70" y1="310.0" x2="790" y2="310.0" stroke="#eee"/>
<text x="65" y="313.0" font-size="9" text-anchor="end">1e4</text>
<line x1="70" y1="282.5" x2="790" y2="282.5" stroke="#eee"/>
<text x="65" y="285.5" font-size="9" text-anchor="end">1e5</text>
<line x1="70" y1="240.3" x2="790" y2="240.3" stroke="#eee"/>
<text x="65" y="243.3" font-size="9" text-anchor="end">1e6</text>
<line x1="70" y1="198.2" x2="790" y2="198.2" stroke="#eee"/>
<text x="65" y="201.2" font-size="9" text-anchor="end">1e7</text>
<line x1="70" y1="156.0" x2="790" y2="156.0" stroke="#eee"/>
<text x="65" y="159.0" font-size="9" text-anchor="end">1e8</text>
<line x1="70" y1="113.8" x2="790" y2="113.8" stroke="#eee"/>
<text x="65" y="116.8" font-size="9" text-anchor="end">1e9</text>
<line x1="70" y1="71.7" x2="790" y2="71.7" stroke="#eee"/>
<text x="65" y="74.7" font-size="9" text-anchor="end">1e10</text>
<rect x="84.4" y="296.6" width="35.3" height="13.4" fill="#16a34a"/>
<rect x="122.8" y="235.6" width="35.3" height="74.4" fill="#2563eb"/>
<text x="142.0" y="324" font-size="10" text-anchor="middle">KEM/KEX keygen</text>
<rect x="228.4" y="310.0" width="35.3" height="0.0" fill="#16a34a"/>
<rect x="266.8" y="235.7" width="35.3" height="74.3" fill="#2563eb"/>
<text x="286.0" y="324" font-size="10" text-anchor="middle">KEM enc/derive</text>
<rect x="372.4" y="269.8" width="35.3" height="40.2" fill="#16a34a"/>
<rect x="410.8" y="235.6" width="35.3" height="74.4" fill="#2563eb"/>
<rect x="449.2" y="63.3" width="35.3" height="246.7" fill="#dc2626"/>
<text x="430.0" y="324" font-size="10" text-anchor="middle">SIG keygen</text>
<rect x="516.4" y="243.5" width="35.3" height="66.5" fill="#16a34a"/>
<rect x="554.8" y="234.7" width="35.3" height="75.3" fill="#2563eb"/>
<rect x="593.2" y="145.6" width="35.3" height="164.4" fill="#dc2626"/>
<text x="574.0" y="324" font-size="10" text-anchor="middle">SIG sign</text>
<rect x="660.4" y="268.5" width="35.3" height="41.5" fill="#16a34a"/>
<rect x="698.8" y="238.5" width="35.3" height="71.5" fill="#2563eb"/>
<rect x="737.2" y="245.0" width="35.3" height="65.0" fill="#dc2626"/>
<text x="718.0" y="324" font-size="10" text-anchor="middle">SIG verify</text>
<rect x="70" y="337" width="12" height="12" fill="#16a34a"/>
<text x="88" y="347" font-size="11">ML-KEM-1024 / ML-DSA-87</text>
<rect x="70" y="353" width="12" height="12" fill="#2563eb"/>
<text x="88" y="363" font-size="11">ECDH/ECDSA-P-521</text>
<rect x="70" y="369" width="12" height="12" fill="#dc2626"/>
<text x="88" y="379" font-size="11">RSA-15360</text>
<text x="790" y="452" font-size="10" text-anchor="end" fill="#666">OpenSSL EVP (tối ưu), thật</text>
</svg>