<svg xmlns="http://www.w3.org/2000/svg" width="820" height="460" viewBox="0 0 820 460" font-family="DejaVu Sans, Arial, sans-serif">
<rect width="820" height="460" fill="white"/>
<text x="410.0" y="24" text-anchor="middle" font-size="16" font-weight="bold">ML-KEM-1024: reference-C (PQClean) vs tối ưu AVX2 (OpenSSL) — x86</text>
<line x1="70" y1="60" x2="70" y2="310" stroke="#333"/>
<line x1="70" y1="310" x2="790" y2="310" stroke="#333"/>
<text x="16" y="185.0" font-size="11" transform="rotate(-90 16 185.0)" text-anchor="middle">ns (median)</text>
<line x1="70" y1="310.0" x2="790" y2="310.0" stroke="#eee"/>
<text x="65" y="313.0" font-size="9" text-anchor="end">0</text>
<line x1="70" y1="260.0" x2="790" y2="260.0" stroke="#eee"/>
<text x="65" y="263.0" font-size="9" text-anchor="end">20604</text>
<line x1="70" y1="210.0" x2="790" y2="210.0" stroke="#eee"/>
<text x="65" y="213.0" font-size="9" text-anchor="end">41208</text>
<line x1="70" y1="160.0" x2="790" y2="160.0" stroke="#eee"/>
<text x="65" y="163.0" font-size="9" text-anchor="end">61812</text>
<line x1="70" y1="110.0" x2="790" y2="110.0" stroke="#eee"/>
<text x="65" y="113.0" font-size="9" text-anchor="end">82416</text>
<line x1="70" y1="60.0" x2="790" y2="60.0" stroke="#eee"/>
<text x="65" y="63.0" font-size="9" text-anchor="end">103019</text>
<rect x="94.0" y="110.0" width="88.3" height="200.0" fill="#d97706"/>
<rect x="190.0" y="197.6" width="88.3" height="112.4" fill="#7c3aed"/>
<text x="190.0" y="324" font-size="10" text-anchor="middle">Keygen</text>
<rect x="334.0" y="108.6" width="88.3" height="201.4" fill="#d97706"/>
<rect x="430.0" y="256.0" width="88.3" height="54.0" fill="#7c3aed"/>
<text x="430.0" y="324" font-size="10" text-anchor="middle">Encaps</text>
<rect x="574.0" y="82.7" width="88.3" height="227.3" fill="#d97706"/>
<rect x="670.0" y="225.3" width="88.3" height="84.7" fill="#7c3aed"/>
<text x="670.0" y="324" font-size="10" text-anchor="middle">Decaps</text>
<rect x="70" y="337" width="12" height="12" fill="#d97706"/>
<text x="88" y="347" font-size="11">reference-C</text>
<rect x="70" y="353" width="12" height="12" fill="#7c3aed"/>
<text x="88" y="363" font-size="11">AVX2 (OpenSSL)</text>
<text x="790" y="452" font-size="10" text-anchor="end" fill="#666">đo thật — RQ1: tối ưu hoá quan trọng cỡ nào</text>
</svg>